<svg width="500" height="145" viewBox="0 0 500 145" fill="none" xmlns="http://www.w3.org/2000/svg">
<g clip-path="url(#clip0_17_5)">
<path d="M20.6811 0H37.674C49.0831 0 58.3551 11.5104 58.3551 25.6737V119.211C58.3551 133.375 49.0831 144.885 37.674 144.885H0V25.6737C0 11.5104 9.27201 0 20.6811 0Z" fill="#FF7A26"/>
<path d="M145.319 0H93.7885C82.3666 0 73.1074 11.4945 73.1074 25.6737V119.211C73.1074 133.391 82.3666 144.885 93.7885 144.885H145.319C156.741 144.885 166 133.391 166 119.211V25.6737C166 11.4945 156.741 0 145.319 0Z" fill="#FF7A26"/>
</g>
<path d="M232.015 31.272V116H218.568V31.272H232.015Z" fill="Black"/>
<path d="M289.829 55.072H301.372V112.192C301.372 129.923 289.472 140.99 271.384 140.99C256.033 140.99 244.966 132.541 242.943 119.808H255.914C257.818 126.829 263.887 130.28 271.503 130.28C282.332 130.28 288.639 123.854 288.639 114.334V104.814C285.188 111.002 277.691 114.691 268.766 114.691C252.939 114.691 241.396 103.148 241.396 84.346C241.396 65.306 252.939 53.882 268.885 53.882C277.81 53.882 284.712 57.452 288.52 63.521L289.829 55.072ZM271.503 103.267C281.618 103.267 288.401 95.77 288.401 84.465C288.401 73.16 281.737 65.306 271.503 65.306C261.269 65.306 254.843 73.16 254.843 84.465C254.843 95.77 261.269 103.267 271.503 103.267Z" fill="Black"/>
<path d="M344.118 53.882C359.469 53.882 368.513 63.997 368.513 79.586V116H355.423V82.323C355.423 70.899 349.592 65.306 340.667 65.306C330.552 65.306 325.078 72.446 325.078 83.275V116H312.107V55.072H323.888L324.84 63.283C328.291 57.452 334.836 53.882 344.118 53.882Z" fill="Black"/>
<path d="M377.755 43.648V30.082H392.154V43.648H377.755ZM378.469 116V55.072H391.44V116H378.469Z" fill="Black"/>
<path d="M422.288 116C411.697 116 405.866 110.05 405.866 99.459V66.615H395.632V55.072H400.868C404.676 55.072 405.866 53.168 405.866 49.36V38.769H418.837V55.072H432.998V66.615H418.837V96.96C418.837 101.839 420.265 104.457 425.977 104.457H432.879V116H422.288Z" fill="Black"/>
<path d="M436.998 85.536C436.998 66.734 449.85 53.763 468.295 53.763C486.859 53.763 499.711 66.734 499.711 85.536C499.711 104.338 486.859 117.19 468.295 117.19C449.85 117.19 436.998 104.338 436.998 85.536ZM450.326 85.417C450.326 97.912 457.466 106.004 468.295 106.004C479.243 106.004 486.383 97.912 486.383 85.417C486.383 72.803 479.243 64.83 468.295 64.83C457.466 64.83 450.326 72.803 450.326 85.417Z" fill="Black"/>
<defs>
<clipPath id="clip0_17_5">
<rect width="166" height="144.885" fill="Black"/>
</clipPath>
</defs>
</svg>